<?xml version="1.0" encoding="UTF-8" standalone="no"?>
<!-- Created with Inkscape (http://www.inkscape.org/) -->

<svg
   xmlns:dc="http://purl.org/dc/elements/1.1/"
   xmlns:cc="http://creativecommons.org/ns#"
   xmlns:rdf="http://www.w3.org/1999/02/22-rdf-syntax-ns#"
   xmlns:svg="http://www.w3.org/2000/svg"
   xmlns="http://www.w3.org/2000/svg"
   xmlns:sodipodi="http://sodipodi.sourceforge.net/DTD/sodipodi-0.dtd"
   xmlns:inkscape="http://www.inkscape.org/namespaces/inkscape"
   id="svg2"
   version="1.1"
   inkscape:version="0.92.2 5c3e80d, 2017-08-06"
   width="245.33333"
   height="245.33333"
   xml:space="preserve"
   sodipodi:docname="agdsn_logo_quadratisch_weiß.svg"><metadata
     id="metadata8"><rdf:RDF><cc:Work
         rdf:about=""><dc:format>image/svg+xml</dc:format><dc:type
           rdf:resource="http://purl.org/dc/dcmitype/StillImage" /><dc:title /></cc:Work></rdf:RDF></metadata><defs
     id="defs6" /><sodipodi:namedview
     pagecolor="#000000"
     bordercolor="#666666"
     borderopacity="1"
     objecttolerance="10"
     gridtolerance="10"
     guidetolerance="10"
     inkscape:pageopacity="0"
     inkscape:pageshadow="2"
     inkscape:window-width="1890"
     inkscape:window-height="1171"
     id="namedview4"
     showgrid="false"
     showguides="true"
     inkscape:guide-bbox="true"
     inkscape:zoom="2.0941239"
     inkscape:cx="-75.349865"
     inkscape:cy="101.94043"
     inkscape:window-x="30"
     inkscape:window-y="0"
     inkscape:window-maximized="1"
     inkscape:current-layer="g10"
     fit-margin-top="0"
     fit-margin-left="0"
     fit-margin-right="0"
     fit-margin-bottom="0"><inkscape:grid
       type="xygrid"
       id="grid3212"
       empspacing="5"
       visible="true"
       enabled="true"
       snapvisiblegridlinesonly="true"
       originx="-88.213825"
       originy="-8.5450761"
       spacingx="1.0666667"
       spacingy="1.0666667" /><sodipodi:guide
       orientation="1,0"
       position="1.4692913,16.306871"
       id="guide3055"
       inkscape:locked="false" /><sodipodi:guide
       orientation="1,0"
       position="187.31865,18.46791"
       id="guide3057"
       inkscape:locked="false" /></sodipodi:namedview><g
     id="g10"
     inkscape:groupmode="layer"
     inkscape:label="agdsn_logo"
     transform="matrix(1.25,0,0,-1.25,-88.213825,253.87841)"><g
       id="g3184"
       transform="translate(22.620476,8.8640372)"
       style="fill:#ffffff;fill-opacity:1"><g
         id="g3031"
         transform="matrix(2.2130749,0,0,2.2130749,69.111082,56.663279)"
         style="fill:#ffffff;fill-opacity:1"><path
           inkscape:connector-curvature="0"
           id="path62"
           style="fill:#ffffff;fill-opacity:1;fill-rule:nonzero;stroke:none;stroke-width:1.06666672"
           d="m 24.071253,36.164587 c 2.043307,1.132053 4.61792,0.39296 5.750827,-1.65088 1.13248,-2.043307 0.39456,-4.61792 -1.648747,-5.749974 -2.043733,-1.132053 -4.618346,-0.392853 -5.751253,1.65088 -1.13248,2.043734 -0.39456,4.61792 1.649173,5.749974" /><path
           inkscape:connector-curvature="0"
           id="path64"
           style="fill:#ffffff;fill-opacity:1;fill-rule:nonzero;stroke:none;stroke-width:1.06666672"
           d="m 30.258773,57.62912 c 2.043734,1.131733 4.618347,0.39296 5.751254,-1.650773 1.13248,-2.043734 0.394133,-4.61792 -1.649174,-5.749974 -2.043733,-1.13216 -4.618346,-0.39296 -5.750826,1.650774 -1.132907,2.043733 -0.39456,4.61792 1.648746,5.749973" /><path
           inkscape:connector-curvature="0"
           id="path66"
           style="fill:#ffffff;fill-opacity:1;fill-rule:nonzero;stroke:none;stroke-width:1.06666672"
           d="M 2.84,19.579627 C 4.883328,20.71168 7.458336,19.972907 8.5908373,17.929173 9.7237547,15.88544 8.9854187,13.310827 6.94208,12.1792 4.898336,11.04704 2.3237547,11.785813 1.1908373,13.829547 0.05833333,15.87328 0.7962496,18.447893 2.84,19.579627" /><path
           inkscape:connector-curvature="0"
           id="path68"
           style="fill:#ffffff;fill-opacity:1;fill-rule:nonzero;stroke:none;stroke-width:1.06666672"
           d="m 62.619947,43.175787 c 2.043413,1.13216 4.61792,0.39296 5.750933,-1.650774 1.132907,-2.043733 0.39456,-4.61792 -1.649173,-5.749973 -2.043414,-1.13216 -4.61792,-0.39296 -5.750827,1.650773 -1.133013,2.043734 -0.394667,4.61792 1.649067,5.749974" /><path
           inkscape:connector-curvature="0"
           id="path70"
           style="fill:#ffffff;fill-opacity:1;fill-rule:nonzero;stroke:none;stroke-width:1.06666672"
           d="m 31.88832,8.0762453 c 2.043307,1.1316694 4.618347,0.3929174 5.750827,-1.6508266 1.132906,-2.0437547 0.39456,-4.618336 -1.648747,-5.75041923 -2.043733,-1.13166614 -4.618347,-0.3924992 -5.750827,1.65083523 -1.132906,2.043744 -0.39456,4.618336 1.648747,5.7504106" /><path
           inkscape:connector-curvature="0"
           id="path72"
           style="fill:#ffffff;fill-opacity:1;fill-rule:nonzero;stroke:none;stroke-width:1.06666672"
           d="m 58.502507,18.04288 c 2.043733,1.13216 4.618346,0.39296 5.751253,-1.650773 1.13248,-2.043734 0.39456,-4.61792 -1.649173,-5.750027 -2.043307,-1.1316587 -4.61792,-0.392917 -5.750827,1.650827 -1.13248,2.043733 -0.39456,4.61792 1.648747,5.749973" /><path
           style="color:#000000;font-style:normal;font-variant:normal;font-weight:normal;font-stretch:normal;font-size:medium;line-height:normal;font-family:sans-serif;text-indent:0;text-align:start;text-decoration:none;text-decoration-line:none;text-decoration-style:solid;text-decoration-color:#000000;letter-spacing:normal;word-spacing:normal;text-transform:none;writing-mode:lr-tb;direction:ltr;baseline-shift:baseline;text-anchor:start;white-space:normal;clip-rule:nonzero;display:inline;overflow:visible;visibility:visible;opacity:1;isolation:auto;mix-blend-mode:normal;color-interpolation:sRGB;color-interpolation-filters:linearRGB;solid-color:#000000;solid-opacity:1;fill:#ffffff;fill-opacity:1;fill-rule:nonzero;stroke:none;stroke-width:1.0667733;stroke-linecap:butt;stroke-linejoin:miter;stroke-miterlimit:3.8636899;stroke-dasharray:none;stroke-dashoffset:0;stroke-opacity:1;color-rendering:auto;image-rendering:auto;shape-rendering:auto;text-rendering:auto;enable-background:accumulate"
           d="M 64.520833,38.485417 32.508333,53.470833 32.960417,54.4375 64.972916,39.452083 Z"
           id="path74"
           inkscape:connector-curvature="0" /><path
           style="color:#000000;font-style:normal;font-variant:normal;font-weight:normal;font-stretch:normal;font-size:medium;line-height:normal;font-family:sans-serif;text-indent:0;text-align:start;text-decoration:none;text-decoration-line:none;text-decoration-style:solid;text-decoration-color:#000000;letter-spacing:normal;word-spacing:normal;text-transform:none;writing-mode:lr-tb;direction:ltr;baseline-shift:baseline;text-anchor:start;white-space:normal;clip-rule:nonzero;display:inline;overflow:visible;visibility:visible;opacity:1;isolation:auto;mix-blend-mode:normal;color-interpolation:sRGB;color-interpolation-filters:linearRGB;solid-color:#000000;solid-opacity:1;fill:#ffffff;fill-opacity:1;fill-rule:nonzero;stroke:none;stroke-width:1.0667733;stroke-linecap:butt;stroke-linejoin:miter;stroke-miterlimit:3.8636899;stroke-dasharray:none;stroke-dashoffset:0;stroke-opacity:1;color-rendering:auto;image-rendering:auto;shape-rendering:auto;text-rendering:auto;enable-background:accumulate"
           d="m 60.9625,15.070833 -1.052083,0.172917 3.893749,23.810416 1.052084,-0.170833 z"
           id="path76"
           inkscape:connector-curvature="0" /><path
           style="color:#000000;font-style:normal;font-variant:normal;font-weight:normal;font-stretch:normal;font-size:medium;line-height:normal;font-family:sans-serif;text-indent:0;text-align:start;text-decoration:none;text-decoration-line:none;text-decoration-style:solid;text-decoration-color:#000000;letter-spacing:normal;word-spacing:normal;text-transform:none;writing-mode:lr-tb;direction:ltr;baseline-shift:baseline;text-anchor:start;white-space:normal;clip-rule:nonzero;display:inline;overflow:visible;visibility:visible;opacity:1;isolation:auto;mix-blend-mode:normal;color-interpolation:sRGB;color-interpolation-filters:linearRGB;solid-color:#000000;solid-opacity:1;fill:#ffffff;fill-opacity:1;fill-rule:nonzero;stroke:none;stroke-width:1.0667733;stroke-linecap:butt;stroke-linejoin:miter;stroke-miterlimit:3.8636899;stroke-dasharray:none;stroke-dashoffset:0;stroke-opacity:1;color-rendering:auto;image-rendering:auto;shape-rendering:auto;text-rendering:auto;enable-background:accumulate"
           d="M 34.05625,3.2854166 33.66875,4.28125 60.370833,14.664583 60.75625,13.670833 Z"
           id="path78"
           inkscape:connector-curvature="0" /><path
           style="color:#000000;font-style:normal;font-variant:normal;font-weight:normal;font-stretch:normal;font-size:medium;line-height:normal;font-family:sans-serif;text-indent:0;text-align:start;text-decoration:none;text-decoration-line:none;text-decoration-style:solid;text-decoration-color:#000000;letter-spacing:normal;word-spacing:normal;text-transform:none;writing-mode:lr-tb;direction:ltr;baseline-shift:baseline;text-anchor:start;white-space:normal;clip-rule:nonzero;display:inline;overflow:visible;visibility:visible;opacity:1;isolation:auto;mix-blend-mode:normal;color-interpolation:sRGB;color-interpolation-filters:linearRGB;solid-color:#000000;solid-opacity:1;fill:#ffffff;fill-opacity:1;fill-rule:nonzero;stroke:none;stroke-width:1.0667733;stroke-linecap:butt;stroke-linejoin:miter;stroke-miterlimit:3.8636899;stroke-dasharray:none;stroke-dashoffset:0;stroke-opacity:1;color-rendering:auto;image-rendering:auto;shape-rendering:auto;text-rendering:auto;enable-background:accumulate"
           d="m 32.564583,4.775 -6.441667,26.80625 1.037501,0.25 L 33.602083,5.025 Z"
           id="path80"
           inkscape:connector-curvature="0" /><path
           style="color:#000000;font-style:normal;font-variant:normal;font-weight:normal;font-stretch:normal;font-size:medium;line-height:normal;font-family:sans-serif;text-indent:0;text-align:start;text-decoration:none;text-decoration-line:none;text-decoration-style:solid;text-decoration-color:#000000;letter-spacing:normal;word-spacing:normal;text-transform:none;writing-mode:lr-tb;direction:ltr;baseline-shift:baseline;text-anchor:start;white-space:normal;clip-rule:nonzero;display:inline;overflow:visible;visibility:visible;opacity:1;isolation:auto;mix-blend-mode:normal;color-interpolation:sRGB;color-interpolation-filters:linearRGB;solid-color:#000000;solid-opacity:1;fill:#ffffff;fill-opacity:1;fill-rule:nonzero;stroke:none;stroke-width:1.0667733;stroke-linecap:butt;stroke-linejoin:miter;stroke-miterlimit:3.8636899;stroke-dasharray:none;stroke-dashoffset:0;stroke-opacity:1;color-rendering:auto;image-rendering:auto;shape-rendering:auto;text-rendering:auto;enable-background:accumulate"
           d="M 5.5145834,15.174999 4.84375,16.004166 25.733333,32.88125 26.404166,32.05 Z"
           id="path82"
           inkscape:connector-curvature="0" /><path
           style="color:#000000;font-style:normal;font-variant:normal;font-weight:normal;font-stretch:normal;font-size:medium;line-height:normal;font-family:sans-serif;text-indent:0;text-align:start;text-decoration:none;text-decoration-line:none;text-decoration-style:solid;text-decoration-color:#000000;letter-spacing:normal;word-spacing:normal;text-transform:none;writing-mode:lr-tb;direction:ltr;baseline-shift:baseline;text-anchor:start;white-space:normal;clip-rule:nonzero;display:inline;overflow:visible;visibility:visible;opacity:1;isolation:auto;mix-blend-mode:normal;color-interpolation:sRGB;color-interpolation-filters:linearRGB;solid-color:#000000;solid-opacity:1;fill:#ffffff;fill-opacity:1;fill-rule:nonzero;stroke:none;stroke-width:1.0667733;stroke-linecap:butt;stroke-linejoin:miter;stroke-miterlimit:3.8636899;stroke-dasharray:none;stroke-dashoffset:0;stroke-opacity:1;color-rendering:auto;image-rendering:auto;shape-rendering:auto;text-rendering:auto;enable-background:accumulate"
           d="M 32.874999,3.3208333 4.9729167,15.097917 5.3874999,16.08125 33.289583,4.3020833 Z"
           id="path84"
           inkscape:connector-curvature="0" /><path
           style="color:#000000;font-style:normal;font-variant:normal;font-weight:normal;font-stretch:normal;font-size:medium;line-height:normal;font-family:sans-serif;text-indent:0;text-align:start;text-decoration:none;text-decoration-line:none;text-decoration-style:solid;text-decoration-color:#000000;letter-spacing:normal;word-spacing:normal;text-transform:none;writing-mode:lr-tb;direction:ltr;baseline-shift:baseline;text-anchor:start;white-space:normal;clip-rule:nonzero;display:inline;overflow:visible;visibility:visible;opacity:1;isolation:auto;mix-blend-mode:normal;color-interpolation:sRGB;color-interpolation-filters:linearRGB;solid-color:#000000;solid-opacity:1;fill:#ffffff;fill-opacity:1;fill-rule:nonzero;stroke:none;stroke-width:1.0667733;stroke-linecap:butt;stroke-linejoin:miter;stroke-miterlimit:3.8636899;stroke-dasharray:none;stroke-dashoffset:0;stroke-opacity:1;color-rendering:auto;image-rendering:auto;shape-rendering:auto;text-rendering:auto;enable-background:accumulate"
           d="M 33.49375,2.1854166 32.672916,2.8666667 64.335417,40.974999 65.15625,40.29375 Z"
           id="path86"
           inkscape:connector-curvature="0" /><path
           style="color:#000000;font-style:normal;font-variant:normal;font-weight:normal;font-stretch:normal;font-size:medium;line-height:normal;font-family:sans-serif;text-indent:0;text-align:start;text-decoration:none;text-decoration-line:none;text-decoration-style:solid;text-decoration-color:#000000;letter-spacing:normal;word-spacing:normal;text-transform:none;writing-mode:lr-tb;direction:ltr;baseline-shift:baseline;text-anchor:start;white-space:normal;clip-rule:nonzero;display:inline;overflow:visible;visibility:visible;opacity:1;isolation:auto;mix-blend-mode:normal;color-interpolation:sRGB;color-interpolation-filters:linearRGB;solid-color:#000000;solid-opacity:1;fill:#ffffff;fill-opacity:1;fill-rule:nonzero;stroke:none;stroke-width:1.0667733;stroke-linecap:butt;stroke-linejoin:miter;stroke-miterlimit:3.8636899;stroke-dasharray:none;stroke-dashoffset:0;stroke-opacity:1;color-rendering:auto;image-rendering:auto;shape-rendering:auto;text-rendering:auto;enable-background:accumulate"
           d="m 26.747917,32.46875 -0.2125,1.045833 37.689584,7.641667 0.210416,-1.045833 z"
           id="path88"
           inkscape:connector-curvature="0" /><path
           style="color:#000000;font-style:normal;font-variant:normal;font-weight:normal;font-stretch:normal;font-size:medium;line-height:normal;font-family:sans-serif;text-indent:0;text-align:start;text-decoration:none;text-decoration-line:none;text-decoration-style:solid;text-decoration-color:#000000;letter-spacing:normal;word-spacing:normal;text-transform:none;writing-mode:lr-tb;direction:ltr;baseline-shift:baseline;text-anchor:start;white-space:normal;clip-rule:nonzero;display:inline;overflow:visible;visibility:visible;opacity:1;isolation:auto;mix-blend-mode:normal;color-interpolation:sRGB;color-interpolation-filters:linearRGB;solid-color:#000000;solid-opacity:1;fill:#ffffff;fill-opacity:1;fill-rule:nonzero;stroke:none;stroke-width:1.0667733;stroke-linecap:butt;stroke-linejoin:miter;stroke-miterlimit:3.8636899;stroke-dasharray:none;stroke-dashoffset:0;stroke-opacity:1;color-rendering:auto;image-rendering:auto;shape-rendering:auto;text-rendering:auto;enable-background:accumulate"
           d="M 26.5125,30.922916 25.485417,31.20625 31.804166,54.095834 32.83125,53.8125 Z"
           id="path90"
           inkscape:connector-curvature="0" /><path
           style="color:#000000;font-style:normal;font-variant:normal;font-weight:normal;font-stretch:normal;font-size:medium;line-height:normal;font-family:sans-serif;text-indent:0;text-align:start;text-decoration:none;text-decoration-line:none;text-decoration-style:solid;text-decoration-color:#000000;letter-spacing:normal;word-spacing:normal;text-transform:none;writing-mode:lr-tb;direction:ltr;baseline-shift:baseline;text-anchor:start;white-space:normal;clip-rule:nonzero;display:inline;overflow:visible;visibility:visible;opacity:1;isolation:auto;mix-blend-mode:normal;color-interpolation:sRGB;color-interpolation-filters:linearRGB;solid-color:#000000;solid-opacity:1;fill:#ffffff;fill-opacity:1;fill-rule:nonzero;stroke:none;stroke-width:1.0667733;stroke-linecap:butt;stroke-linejoin:miter;stroke-miterlimit:3.8636899;stroke-dasharray:none;stroke-dashoffset:0;stroke-opacity:1;color-rendering:auto;image-rendering:auto;shape-rendering:auto;text-rendering:auto;enable-background:accumulate"
           d="M 60.41875,13.6 31.883333,53.645834 32.752083,54.264583 61.2875,14.21875 Z"
           id="path92"
           inkscape:connector-curvature="0" /><path
           style="color:#000000;font-style:normal;font-variant:normal;font-weight:normal;font-stretch:normal;font-size:medium;line-height:normal;font-family:sans-serif;text-indent:0;text-align:start;text-decoration:none;text-decoration-line:none;text-decoration-style:solid;text-decoration-color:#000000;letter-spacing:normal;word-spacing:normal;text-transform:none;writing-mode:lr-tb;direction:ltr;baseline-shift:baseline;text-anchor:start;white-space:normal;clip-rule:nonzero;display:inline;overflow:visible;visibility:visible;opacity:1;isolation:auto;mix-blend-mode:normal;color-interpolation:sRGB;color-interpolation-filters:linearRGB;solid-color:#000000;solid-opacity:1;fill:#ffffff;fill-opacity:1;fill-rule:nonzero;stroke:none;stroke-width:1.0667733;stroke-linecap:butt;stroke-linejoin:miter;stroke-miterlimit:3.8636899;stroke-dasharray:none;stroke-dashoffset:0;stroke-opacity:1;color-rendering:auto;image-rendering:auto;shape-rendering:auto;text-rendering:auto;enable-background:accumulate"
           d="M 60.8375,13.374999 5.0874999,15.020833 5.1208333,16.085417 60.86875,14.441666 60.837497,13.374999 Z"
           id="path94"
           inkscape:connector-curvature="0" /><path
           style="color:#000000;font-style:normal;font-variant:normal;font-weight:normal;font-stretch:normal;font-size:medium;line-height:normal;font-family:sans-serif;text-indent:0;text-align:start;text-decoration:none;text-decoration-line:none;text-decoration-style:solid;text-decoration-color:#000000;letter-spacing:normal;word-spacing:normal;text-transform:none;writing-mode:lr-tb;direction:ltr;baseline-shift:baseline;text-anchor:start;white-space:normal;clip-rule:nonzero;display:inline;overflow:visible;visibility:visible;opacity:1;isolation:auto;mix-blend-mode:normal;color-interpolation:sRGB;color-interpolation-filters:linearRGB;solid-color:#000000;solid-opacity:1;fill:#ffffff;fill-opacity:1;fill-rule:nonzero;stroke:none;stroke-width:1.0667733;stroke-linecap:butt;stroke-linejoin:miter;stroke-miterlimit:3.8636899;stroke-dasharray:none;stroke-dashoffset:0;stroke-opacity:1;color-rendering:auto;image-rendering:auto;shape-rendering:auto;text-rendering:auto;enable-background:accumulate"
           d="m 59.78125,14.68125 -33.822916,16.925 0.477083,0.954167 33.825,-16.925 z"
           id="path96"
           inkscape:connector-curvature="0" /><path
           style="color:#000000;font-style:normal;font-variant:normal;font-weight:normal;font-stretch:normal;font-size:medium;line-height:normal;font-family:sans-serif;text-indent:0;text-align:start;text-decoration:none;text-decoration-line:none;text-decoration-style:solid;text-decoration-color:#000000;letter-spacing:normal;word-spacing:normal;text-transform:none;writing-mode:lr-tb;direction:ltr;baseline-shift:baseline;text-anchor:start;white-space:normal;clip-rule:nonzero;display:inline;overflow:visible;visibility:visible;opacity:1;isolation:auto;mix-blend-mode:normal;color-interpolation:sRGB;color-interpolation-filters:linearRGB;solid-color:#000000;solid-opacity:1;fill:#ffffff;fill-opacity:1;fill-rule:nonzero;stroke:none;stroke-width:1.0667733;stroke-linecap:butt;stroke-linejoin:miter;stroke-miterlimit:3.8636899;stroke-dasharray:none;stroke-dashoffset:0;stroke-opacity:1;color-rendering:auto;image-rendering:auto;shape-rendering:auto;text-rendering:auto;enable-background:accumulate"
           d="m 5.0291667,15.325001 -0.3875,0.993749 61.0250003,23.797917 0.387499,-0.995834 z"
           id="path98"
           inkscape:connector-curvature="0" /><path
           style="color:#000000;font-style:normal;font-variant:normal;font-weight:normal;font-stretch:normal;font-size:medium;line-height:normal;font-family:sans-serif;text-indent:0;text-align:start;text-decoration:none;text-decoration-line:none;text-decoration-style:solid;text-decoration-color:#000000;letter-spacing:normal;word-spacing:normal;text-transform:none;writing-mode:lr-tb;direction:ltr;baseline-shift:baseline;text-anchor:start;white-space:normal;clip-rule:nonzero;display:inline;overflow:visible;visibility:visible;opacity:1;isolation:auto;mix-blend-mode:normal;color-interpolation:sRGB;color-interpolation-filters:linearRGB;solid-color:#000000;solid-opacity:1;fill:#ffffff;fill-opacity:1;fill-rule:nonzero;stroke:none;stroke-width:1.0667733;stroke-linecap:butt;stroke-linejoin:miter;stroke-miterlimit:3.8636899;stroke-dasharray:none;stroke-dashoffset:0;stroke-opacity:1;color-rendering:auto;image-rendering:auto;shape-rendering:auto;text-rendering:auto;enable-background:accumulate"
           d="M 34.477084,3.7854166 32.104166,52.566667 33.170833,52.618752 35.54375,3.8375021 34.477084,3.7854189 Z"
           id="path100"
           inkscape:connector-curvature="0" /></g><g
         aria-label="AG DSN"
         transform="scale(1,-1)"
         style="font-style:normal;font-variant:normal;font-weight:normal;font-stretch:normal;font-size:12.80000019px;line-height:0%;font-family:FontAwesome;-inkscape-font-specification:FontAwesome;text-align:center;letter-spacing:0px;word-spacing:0px;text-anchor:middle;fill:#ffffff;fill-opacity:1;stroke:none;stroke-width:1.06666672"
         id="text3091"><path
           d="M 102.66266,-19.521385 89.435998,-51.052053 h -4.608 l -13.141334,31.530668 h 6.442667 l 3.498667,-8.149334 h 11.221333 l 3.370667,8.149334 z M 90.502664,-33.260052 h -6.741333 l 3.370667,-9.557334 z"
           style="font-style:normal;font-variant:normal;font-weight:bold;font-stretch:normal;font-size:42.66666794px;line-height:1.25;font-family:'TeX Gyre Adventor';-inkscape-font-specification:'TeX Gyre Adventor Bold';letter-spacing:-0.93915659;fill:#ffffff;fill-opacity:1;stroke-width:1.06666672"
           id="path841" /><path
           d="m 135.43351,-34.838719 v -0.768 h -20.608 v 5.461333 h 13.056 c -1.70667,3.498667 -5.12,5.546667 -9.25867,5.546667 -6.18667,0 -10.92267,-4.650666 -10.92267,-10.666667 0,-5.930667 4.352,-10.709333 10.58134,-10.709333 3.66933,0 6.69866,1.450666 8.66133,4.181333 h 6.86933 c -2.048,-5.674667 -8.53333,-9.813333 -15.40266,-9.813333 -9.216,0 -16.59734,7.210666 -16.59734,16.256 0,9.216 7.46667,16.384 17.152,16.384 9.30134,0 16.46934,-7.296 16.46934,-15.872 z"
           style="font-style:normal;font-variant:normal;font-weight:bold;font-stretch:normal;font-size:42.66666794px;line-height:1.25;font-family:'TeX Gyre Adventor';-inkscape-font-specification:'TeX Gyre Adventor Bold';letter-spacing:-0.93915659;fill:#ffffff;fill-opacity:1;stroke-width:1.06666672"
           id="path843" /><path
           d="m 169.77462,-35.222719 c 0,-5.973334 -2.47467,-10.922667 -6.86933,-13.568 -2.47467,-1.493334 -6.22934,-2.261334 -11.17867,-2.261334 h -7.21067 v 31.530668 h 7.33867 c 4.77867,0 7.63733,-0.469334 10.19733,-1.749334 4.864,-2.389333 7.72267,-7.594666 7.72267,-13.952 z m -5.888,0 c 0,3.797333 -1.74933,7.168 -4.56533,8.704 -1.74934,0.981334 -4.18134,1.408 -7.68,1.408 h -1.28 v -20.352 h 1.152 c 3.712,0 5.71733,0.341333 7.552,1.28 2.98666,1.536 4.82133,4.906667 4.82133,8.96 z"
           style="font-style:normal;font-variant:normal;font-weight:bold;font-stretch:normal;font-size:42.66666794px;line-height:1.25;font-family:'TeX Gyre Adventor';-inkscape-font-specification:'TeX Gyre Adventor Bold';letter-spacing:-0.93915659;fill:#ffffff;fill-opacity:1;stroke-width:1.06666672"
           id="path845" /><path
           d="m 191.54347,-29.078719 c 0,-4.266667 -1.74934,-7.04 -8.14934,-9.429333 -2.98666,-1.109334 -3.072,-1.152 -3.49866,-1.408 -1.152,-0.725334 -1.74934,-1.706667 -1.74934,-2.858667 0,-1.877334 1.32267,-3.2 3.24267,-3.2 1.96267,0 3.15733,1.194666 3.328,3.328 h 6.05867 c -0.29867,-5.546667 -4.26667,-8.96 -9.344,-8.96 -5.07734,0 -9.17334,3.968 -9.17334,8.96 0,3.968 2.34667,6.997333 6.57067,8.576 4.18133,1.578667 4.52267,1.706667 5.46133,2.432 0.93867,0.725333 1.45067,1.92 1.45067,3.2 0,2.261334 -1.74933,3.84 -4.26667,3.84 -2.60266,0 -4.01066,-1.28 -4.26666,-3.925333 h -6.10134 c 0.512,5.973333 4.82134,9.557333 10.368,9.557333 5.67467,0 10.06934,-4.394666 10.06934,-10.112 z"
           style="font-style:normal;font-variant:normal;font-weight:bold;font-stretch:normal;font-size:42.66666794px;line-height:1.25;font-family:'TeX Gyre Adventor';-inkscape-font-specification:'TeX Gyre Adventor Bold';letter-spacing:-0.93915659;fill:#ffffff;fill-opacity:1;stroke-width:1.06666672"
           id="path847" /><path
           d="m 220.19498,-19.521385 v -31.530668 h -5.84534 v 22.954668 l -13.056,-22.954668 h -6.656 v 31.530668 h 5.84534 v -22.912001 l 13.184,22.912001 z"
           style="font-style:normal;font-variant:normal;font-weight:bold;font-stretch:normal;font-size:42.66666794px;line-height:1.25;font-family:'TeX Gyre Adventor';-inkscape-font-specification:'TeX Gyre Adventor Bold';letter-spacing:-0.93915659;fill:#ffffff;fill-opacity:1;stroke-width:1.06666672"
           id="path849" /></g><g
         aria-label="AG Dresdner Studentennetz"
         transform="scale(1,-1)"
         style="font-style:normal;font-variant:normal;font-weight:normal;font-stretch:normal;font-size:12.80000019px;line-height:0%;font-family:FontAwesome;-inkscape-font-specification:FontAwesome;text-align:center;letter-spacing:0px;word-spacing:0px;text-anchor:middle;fill:#ffffff;fill-opacity:1;stroke:none;stroke-width:1.06666672"
         id="text3101"><path
           d="m 79.17186,-6.9691806 -3.1744,-7.5673604 h -1.10592 l -3.153921,7.5673604 h 1.54624 l 0.839681,-1.9558401 h 2.69312 l 0.80896,1.9558401 z m -2.9184,-3.2972804 h -1.61792 l 0.80896,-2.29376 z"
           style="font-style:normal;font-variant:normal;font-weight:bold;font-stretch:normal;font-size:10.24000072px;line-height:1.25;font-family:'TeX Gyre Adventor';-inkscape-font-specification:'TeX Gyre Adventor Bold';text-align:start;letter-spacing:0.54251951;text-anchor:start;fill:#ffffff;fill-opacity:1;stroke-width:1.06666672"
           id="path852" /><path
           d="m 87.80478,-10.645341 v -0.18432 h -4.94592 v 1.3107202 h 3.13344 c -0.4096,0.8396801 -1.2288,1.3312001 -2.22208,1.3312001 -1.4848,0 -2.62144,-1.11616 -2.62144,-2.5600003 0,-1.42336 1.04448,-2.57024 2.53952,-2.57024 0.88064,0 1.60768,0.34816 2.07872,1.00352 h 1.64864 c -0.49152,-1.36192 -2.048,-2.3552 -3.69664,-2.3552 -2.21184,0 -3.98336,1.73056 -3.98336,3.90144 0,2.2118403 1.792,3.9321604 4.11648,3.9321604 2.23232,0 3.95264,-1.7510401 3.95264,-3.8092804 z"
           style="font-style:normal;font-variant:normal;font-weight:bold;font-stretch:normal;font-size:10.24000072px;line-height:1.25;font-family:'TeX Gyre Adventor';-inkscape-font-specification:'TeX Gyre Adventor Bold';text-align:start;letter-spacing:0.54251951;text-anchor:start;fill:#ffffff;fill-opacity:1;stroke-width:1.06666672"
           id="path854" /><path
           d="m 98.7319,-10.737501 c 0,-1.4336 -0.59392,-2.62144 -1.64864,-3.25632 -0.59392,-0.3584 -1.49504,-0.54272 -2.682881,-0.54272 h -1.73056 v 7.5673604 h 1.76128 c 1.146881,0 1.832961,-0.11264 2.447361,-0.41984 1.16736,-0.5734401 1.85344,-1.8227201 1.85344,-3.3484804 z m -1.41312,0 c 0,0.9113602 -0.41984,1.7203203 -1.09568,2.0889603 -0.41984,0.23552 -1.00352,0.33792 -1.843201,0.33792 h -0.3072 v -4.8844803 h 0.27648 c 0.890881,0 1.372161,0.08192 1.812481,0.3072 0.7168,0.36864 1.15712,1.1776 1.15712,2.1504 z"
           style="font-style:normal;font-variant:normal;font-weight:bold;font-stretch:normal;font-size:10.24000072px;line-height:1.25;font-family:'TeX Gyre Adventor';-inkscape-font-specification:'TeX Gyre Adventor Bold';text-align:start;letter-spacing:0.54251951;text-anchor:start;fill:#ffffff;fill-opacity:1;stroke-width:1.06666672"
           id="path856" /><path
           d="m 102.80946,-11.464541 v -1.31072 h -0.1024 c -0.58368,0 -0.8704,0.16384 -1.2288,0.68608 v -0.55296 h -1.24928 v 5.6729604 h 1.36192 v -3.1539204 c 0,-0.88064 0.39936,-1.32096 1.21856,-1.34144 z"
           style="font-style:normal;font-variant:normal;font-weight:bold;font-stretch:normal;font-size:10.24000072px;line-height:1.25;font-family:'TeX Gyre Adventor';-inkscape-font-specification:'TeX Gyre Adventor Bold';text-align:start;letter-spacing:0.54251951;text-anchor:start;fill:#ffffff;fill-opacity:1;stroke-width:1.06666672"
           id="path858" /><path
           d="m 109.52446,-9.7237408 c 0,-1.7612802 -1.23904,-3.0515202 -2.92864,-3.0515202 -1.66912,0 -2.99008,1.32096 -2.99008,2.9900802 0,1.6588801 1.34144,2.9491202 3.072,2.9491202 1.14688,0 2.32448,-0.64512 2.70336,-1.8124801 h -1.4848 c -0.34816,0.4096 -0.68608,0.5632 -1.24928,0.5632 -0.80896,0 -1.40288,-0.43008 -1.56672,-1.11616 h 4.39296 c 0.041,-0.1945601 0.0512,-0.3174401 0.0512,-0.5222401 z m -1.34144,-0.6758402 h -3.14368 c 0.21504,-0.72704 0.768,-1.1264 1.57696,-1.1264 0.83968,0 1.39264,0.39936 1.56672,1.1264 z"
           style="font-style:normal;font-variant:normal;font-weight:bold;font-stretch:normal;font-size:10.24000072px;line-height:1.25;font-family:'TeX Gyre Adventor';-inkscape-font-specification:'TeX Gyre Adventor Bold';text-align:start;letter-spacing:0.54251951;text-anchor:start;fill:#ffffff;fill-opacity:1;stroke-width:1.06666672"
           id="path860" /><path
           d="m 114.70186,-8.7714207 c 0,-0.8396801 -0.38912,-1.2902403 -1.57696,-1.6588803 -0.93184,-0.29696 -0.96256,-0.31744 -0.96256,-0.6144 0,-0.27648 0.22528,-0.48128 0.52224,-0.48128 0.28672,0 0.47104,0.1536 0.53248,0.45056 h 1.3312 c -0.0512,-1.06496 -0.90112,-1.69984 -1.86368,-1.69984 -1.05472,0 -1.88416,0.75776 -1.88416,1.73056 0,0.82944 0.45056,1.3004802 1.57696,1.6793602 0.91136,0.3072001 0.96256,0.3993601 0.96256,0.7270401 0,0.31744 -0.26624,0.55296 -0.6144,0.55296 -0.39936,0 -0.62464,-0.2048 -0.75776,-0.68608 h -1.37216 c 0.14336,1.3209601 0.95232,1.9353601 2.07872,1.9353601 1.13664,0 2.02752,-0.84992 2.02752,-1.9353601 z"
           style="font-style:normal;font-variant:normal;font-weight:bold;font-stretch:normal;font-size:10.24000072px;line-height:1.25;font-family:'TeX Gyre Adventor';-inkscape-font-specification:'TeX Gyre Adventor Bold';text-align:start;letter-spacing:0.54251951;text-anchor:start;fill:#ffffff;fill-opacity:1;stroke-width:1.06666672"
           id="path862" /><path
           d="m 121.7207,-6.9691806 v -7.5673604 h -1.36192 v 2.39616 c -0.39936,-0.44032 -1.05472,-0.70656 -1.77152,-0.70656 -1.5872,0 -2.83648,1.3312 -2.83648,3.0310402 0,1.6793601 1.23904,2.9798402 2.84672,2.9798402 0.768,0 1.3312,-0.256 1.87392,-0.8704 v 0.73728 z m -1.25952,-2.8672002 c 0,0.9830401 -0.72704,1.7510401 -1.64864,1.7510401 -0.95232,0 -1.6896,-0.78848 -1.6896,-1.7920001 0,-0.9625602 0.72704,-1.7203202 1.65888,-1.7203202 0.95232,0 1.67936,0.768 1.67936,1.7612802 z"
           style="font-style:normal;font-variant:normal;font-weight:bold;font-stretch:normal;font-size:10.24000072px;line-height:1.25;font-family:'TeX Gyre Adventor';-inkscape-font-specification:'TeX Gyre Adventor Bold';text-align:start;letter-spacing:0.54251951;text-anchor:start;fill:#ffffff;fill-opacity:1;stroke-width:1.06666672"
           id="path864" /><path
           d="m 128.33714,-6.9691806 v -3.0412804 c 0,-1.01376 -0.1024,-1.50528 -0.4096,-1.9456 -0.36864,-0.53248 -0.98304,-0.8192 -1.77152,-0.8192 -0.64512,0 -1.09568,0.19456 -1.59744,0.67584 v -0.54272 h -1.25952 v 5.6729604 h 1.36192 v -2.6726402 c 0,-0.7577602 0.0512,-1.0854402 0.22528,-1.3619202 0.21504,-0.33792 0.57344,-0.52224 1.00352,-0.52224 0.67584,0 1.08544,0.26624 1.08544,1.7817602 v 2.7750402 z"
           style="font-style:normal;font-variant:normal;font-weight:bold;font-stretch:normal;font-size:10.24000072px;line-height:1.25;font-family:'TeX Gyre Adventor';-inkscape-font-specification:'TeX Gyre Adventor Bold';text-align:start;letter-spacing:0.54251951;text-anchor:start;fill:#ffffff;fill-opacity:1;stroke-width:1.06666672"
           id="path866" /><path
           d="m 135.65454,-9.7237408 c 0,-1.7612802 -1.23904,-3.0515202 -2.92864,-3.0515202 -1.66912,0 -2.99008,1.32096 -2.99008,2.9900802 0,1.6588801 1.34144,2.9491202 3.072,2.9491202 1.14688,0 2.32448,-0.64512 2.70336,-1.8124801 h -1.4848 c -0.34816,0.4096 -0.68608,0.5632 -1.24928,0.5632 -0.80896,0 -1.40288,-0.43008 -1.56672,-1.11616 h 4.39296 c 0.041,-0.1945601 0.0512,-0.3174401 0.0512,-0.5222401 z m -1.34144,-0.6758402 h -3.14368 c 0.21504,-0.72704 0.768,-1.1264 1.57696,-1.1264 0.83968,0 1.39264,0.39936 1.56672,1.1264 z"
           style="font-style:normal;font-variant:normal;font-weight:bold;font-stretch:normal;font-size:10.24000072px;line-height:1.25;font-family:'TeX Gyre Adventor';-inkscape-font-specification:'TeX Gyre Adventor Bold';text-align:start;letter-spacing:0.54251951;text-anchor:start;fill:#ffffff;fill-opacity:1;stroke-width:1.06666672"
           id="path868" /><path
           d="m 139.66458,-11.464541 v -1.31072 h -0.1024 c -0.58368,0 -0.8704,0.16384 -1.2288,0.68608 v -0.55296 h -1.24928 v 5.6729604 h 1.36192 v -3.1539204 c 0,-0.88064 0.39936,-1.32096 1.21856,-1.34144 z"
           style="font-style:normal;font-variant:normal;font-weight:bold;font-stretch:normal;font-size:10.24000072px;line-height:1.25;font-family:'TeX Gyre Adventor';-inkscape-font-specification:'TeX Gyre Adventor Bold';text-align:start;letter-spacing:0.54251951;text-anchor:start;fill:#ffffff;fill-opacity:1;stroke-width:1.06666672"
           id="path870" /><path
           d="m 148.8045,-9.2629407 c 0,-1.0240003 -0.41984,-1.6896003 -1.95584,-2.2630403 -0.7168,-0.26624 -0.73728,-0.27648 -0.83968,-0.33792 -0.27648,-0.17408 -0.41984,-0.4096 -0.41984,-0.68608 0,-0.45056 0.31744,-0.768 0.77824,-0.768 0.47104,0 0.75776,0.28672 0.79872,0.79872 h 1.45408 c -0.0717,-1.3312 -1.024,-2.1504 -2.24256,-2.1504 -1.21856,0 -2.2016,0.95232 -2.2016,2.1504 0,0.95232 0.5632,1.67936 1.57696,2.05824 1.00352,0.37888 1.08544,0.4096 1.31072,0.5836802 0.22528,0.17408 0.34816,0.4608 0.34816,0.7680001 0,0.54272 -0.41984,0.9216 -1.024,0.9216 -0.62464,0 -0.96256,-0.3072 -1.024,-0.94208 h -1.46432 c 0.12288,1.4336001 1.15712,2.2937601 2.48832,2.2937601 1.36192,0 2.41664,-1.05472 2.41664,-2.4268801 z"
           style="font-style:normal;font-variant:normal;font-weight:bold;font-stretch:normal;font-size:10.24000072px;line-height:1.25;font-family:'TeX Gyre Adventor';-inkscape-font-specification:'TeX Gyre Adventor Bold';text-align:start;letter-spacing:0.54251951;text-anchor:start;fill:#ffffff;fill-opacity:1;stroke-width:1.06666672"
           id="path872" /><path
           d="m 152.65758,-11.403101 v -1.23904 h -0.8192 v -1.8944 h -1.36192 v 1.8944 h -0.6656 v 1.23904 h 0.6656 v 4.4339204 h 1.36192 v -4.4339204 z"
           style="font-style:normal;font-variant:normal;font-weight:bold;font-stretch:normal;font-size:10.24000072px;line-height:1.25;font-family:'TeX Gyre Adventor';-inkscape-font-specification:'TeX Gyre Adventor Bold';text-align:start;letter-spacing:0.54251951;text-anchor:start;fill:#ffffff;fill-opacity:1;stroke-width:1.06666672"
           id="path874" /><path
           d="m 158.9425,-6.9691806 v -5.6729604 h -1.36192 v 2.6726402 c 0,0.7577601 -0.0614,1.1059201 -0.21504,1.3619201 -0.2048,0.32768 -0.57344,0.52224 -1.03424,0.52224 -0.65536,0 -1.0752,-0.27648 -1.0752,-1.7817601 v -2.7750402 h -1.36192 v 3.0412802 c 0,1.9968002 0.83968,2.7648002 2.16064,2.7648002 0.68608,0 1.11616,-0.17408 1.62816,-0.67584 v 0.54272 z"
           style="font-style:normal;font-variant:normal;font-weight:bold;font-stretch:normal;font-size:10.24000072px;line-height:1.25;font-family:'TeX Gyre Adventor';-inkscape-font-specification:'TeX Gyre Adventor Bold';text-align:start;letter-spacing:0.54251951;text-anchor:start;fill:#ffffff;fill-opacity:1;stroke-width:1.06666672"
           id="path876" /><path
           d="m 166.30086,-6.9691806 v -7.5673604 h -1.36192 v 2.39616 c -0.39936,-0.44032 -1.05472,-0.70656 -1.77152,-0.70656 -1.5872,0 -2.83648,1.3312 -2.83648,3.0310402 0,1.6793601 1.23904,2.9798402 2.84672,2.9798402 0.768,0 1.3312,-0.256 1.87392,-0.8704 v 0.73728 z m -1.25952,-2.8672002 c 0,0.9830401 -0.72704,1.7510401 -1.64864,1.7510401 -0.95232,0 -1.6896,-0.78848 -1.6896,-1.7920001 0,-0.9625602 0.72704,-1.7203202 1.65888,-1.7203202 0.95232,0 1.67936,0.768 1.67936,1.7612802 z"
           style="font-style:normal;font-variant:normal;font-weight:bold;font-stretch:normal;font-size:10.24000072px;line-height:1.25;font-family:'TeX Gyre Adventor';-inkscape-font-specification:'TeX Gyre Adventor Bold';text-align:start;letter-spacing:0.54251951;text-anchor:start;fill:#ffffff;fill-opacity:1;stroke-width:1.06666672"
           id="path878" /><path
           d="m 173.55218,-9.7237408 c 0,-1.7612802 -1.23904,-3.0515202 -2.92864,-3.0515202 -1.66912,0 -2.99008,1.32096 -2.99008,2.9900802 0,1.6588801 1.34144,2.9491202 3.072,2.9491202 1.14688,0 2.32448,-0.64512 2.70336,-1.8124801 h -1.4848 c -0.34816,0.4096 -0.68608,0.5632 -1.24928,0.5632 -0.80896,0 -1.40288,-0.43008 -1.56672,-1.11616 h 4.39296 c 0.041,-0.1945601 0.0512,-0.3174401 0.0512,-0.5222401 z m -1.34144,-0.6758402 h -3.14368 c 0.21504,-0.72704 0.768,-1.1264 1.57696,-1.1264 0.83968,0 1.39264,0.39936 1.56672,1.1264 z"
           style="font-style:normal;font-variant:normal;font-weight:bold;font-stretch:normal;font-size:10.24000072px;line-height:1.25;font-family:'TeX Gyre Adventor';-inkscape-font-specification:'TeX Gyre Adventor Bold';text-align:start;letter-spacing:0.54251951;text-anchor:start;fill:#ffffff;fill-opacity:1;stroke-width:1.06666672"
           id="path880" /><path
           d="m 180.01982,-6.9691806 v -3.0412804 c 0,-1.01376 -0.1024,-1.50528 -0.4096,-1.9456 -0.36864,-0.53248 -0.98304,-0.8192 -1.77152,-0.8192 -0.64512,0 -1.09568,0.19456 -1.59744,0.67584 v -0.54272 h -1.25952 v 5.6729604 h 1.36192 v -2.6726402 c 0,-0.7577602 0.0512,-1.0854402 0.22528,-1.3619202 0.21504,-0.33792 0.57344,-0.52224 1.00352,-0.52224 0.67584,0 1.08544,0.26624 1.08544,1.7817602 v 2.7750402 z"
           style="font-style:normal;font-variant:normal;font-weight:bold;font-stretch:normal;font-size:10.24000072px;line-height:1.25;font-family:'TeX Gyre Adventor';-inkscape-font-specification:'TeX Gyre Adventor Bold';text-align:start;letter-spacing:0.54251951;text-anchor:start;fill:#ffffff;fill-opacity:1;stroke-width:1.06666672"
           id="path882" /><path
           d="m 184.05018,-11.403101 v -1.23904 h -0.8192 v -1.8944 h -1.36192 v 1.8944 h -0.6656 v 1.23904 h 0.6656 v 4.4339204 h 1.36192 v -4.4339204 z"
           style="font-style:normal;font-variant:normal;font-weight:bold;font-stretch:normal;font-size:10.24000072px;line-height:1.25;font-family:'TeX Gyre Adventor';-inkscape-font-specification:'TeX Gyre Adventor Bold';text-align:start;letter-spacing:0.54251951;text-anchor:start;fill:#ffffff;fill-opacity:1;stroke-width:1.06666672"
           id="path884" /><path
           d="m 190.85974,-9.7237408 c 0,-1.7612802 -1.23904,-3.0515202 -2.92864,-3.0515202 -1.66912,0 -2.99008,1.32096 -2.99008,2.9900802 0,1.6588801 1.34144,2.9491202 3.072,2.9491202 1.14688,0 2.32448,-0.64512 2.70336,-1.8124801 h -1.4848 c -0.34816,0.4096 -0.68608,0.5632 -1.24928,0.5632 -0.80896,0 -1.40288,-0.43008 -1.56672,-1.11616 h 4.39296 c 0.041,-0.1945601 0.0512,-0.3174401 0.0512,-0.5222401 z m -1.34144,-0.6758402 h -3.14368 c 0.21504,-0.72704 0.768,-1.1264 1.57696,-1.1264 0.83968,0 1.39264,0.39936 1.56672,1.1264 z"
           style="font-style:normal;font-variant:normal;font-weight:bold;font-stretch:normal;font-size:10.24000072px;line-height:1.25;font-family:'TeX Gyre Adventor';-inkscape-font-specification:'TeX Gyre Adventor Bold';text-align:start;letter-spacing:0.54251951;text-anchor:start;fill:#ffffff;fill-opacity:1;stroke-width:1.06666672"
           id="path886" /><path
           d="m 197.32738,-6.9691806 v -3.0412804 c 0,-1.01376 -0.1024,-1.50528 -0.4096,-1.9456 -0.36864,-0.53248 -0.98304,-0.8192 -1.77152,-0.8192 -0.64512,0 -1.09568,0.19456 -1.59744,0.67584 v -0.54272 h -1.25952 v 5.6729604 h 1.36192 v -2.6726402 c 0,-0.7577602 0.0512,-1.0854402 0.22528,-1.3619202 0.21504,-0.33792 0.57344,-0.52224 1.00352,-0.52224 0.67584,0 1.08544,0.26624 1.08544,1.7817602 v 2.7750402 z"
           style="font-style:normal;font-variant:normal;font-weight:bold;font-stretch:normal;font-size:10.24000072px;line-height:1.25;font-family:'TeX Gyre Adventor';-inkscape-font-specification:'TeX Gyre Adventor Bold';text-align:start;letter-spacing:0.54251951;text-anchor:start;fill:#ffffff;fill-opacity:1;stroke-width:1.06666672"
           id="path888" /><path
           d="m 204.00989,-6.9691806 v -3.0412804 c 0,-1.01376 -0.1024,-1.50528 -0.4096,-1.9456 -0.36864,-0.53248 -0.98304,-0.8192 -1.77152,-0.8192 -0.64512,0 -1.09568,0.19456 -1.59744,0.67584 v -0.54272 h -1.25952 v 5.6729604 h 1.36192 v -2.6726402 c 0,-0.7577602 0.0512,-1.0854402 0.22528,-1.3619202 0.21504,-0.33792 0.57344,-0.52224 1.00352,-0.52224 0.67584,0 1.08544,0.26624 1.08544,1.7817602 v 2.7750402 z"
           style="font-style:normal;font-variant:normal;font-weight:bold;font-stretch:normal;font-size:10.24000072px;line-height:1.25;font-family:'TeX Gyre Adventor';-inkscape-font-specification:'TeX Gyre Adventor Bold';text-align:start;letter-spacing:0.54251951;text-anchor:start;fill:#ffffff;fill-opacity:1;stroke-width:1.06666672"
           id="path890" /><path
           d="m 211.3273,-9.7237408 c 0,-1.7612802 -1.23904,-3.0515202 -2.92864,-3.0515202 -1.66912,0 -2.99008,1.32096 -2.99008,2.9900802 0,1.6588801 1.34144,2.9491202 3.072,2.9491202 1.14688,0 2.32448,-0.64512 2.70336,-1.8124801 h -1.4848 c -0.34816,0.4096 -0.68608,0.5632 -1.24928,0.5632 -0.80896,0 -1.40288,-0.43008 -1.56672,-1.11616 h 4.39296 c 0.041,-0.1945601 0.0512,-0.3174401 0.0512,-0.5222401 z m -1.34144,-0.6758402 h -3.14368 c 0.21504,-0.72704 0.768,-1.1264 1.57696,-1.1264 0.83968,0 1.39264,0.39936 1.56672,1.1264 z"
           style="font-style:normal;font-variant:normal;font-weight:bold;font-stretch:normal;font-size:10.24000072px;line-height:1.25;font-family:'TeX Gyre Adventor';-inkscape-font-specification:'TeX Gyre Adventor Bold';text-align:start;letter-spacing:0.54251951;text-anchor:start;fill:#ffffff;fill-opacity:1;stroke-width:1.06666672"
           id="path892" /><path
           d="m 215.14278,-11.403101 v -1.23904 h -0.8192 v -1.8944 h -1.36192 v 1.8944 h -0.6656 v 1.23904 h 0.6656 v 4.4339204 h 1.36192 v -4.4339204 z"
           style="font-style:normal;font-variant:normal;font-weight:bold;font-stretch:normal;font-size:10.24000072px;line-height:1.25;font-family:'TeX Gyre Adventor';-inkscape-font-specification:'TeX Gyre Adventor Bold';text-align:start;letter-spacing:0.54251951;text-anchor:start;fill:#ffffff;fill-opacity:1;stroke-width:1.06666672"
           id="path894" /><path
           d="m 220.3525,-6.9691806 v -1.2185601 h -2.69312 l 2.49856,-3.2358403 v -1.21856 h -3.84 v 1.21856 h 2.21184 l -2.49856,3.2358403 v 1.2185601 z"
           style="font-style:normal;font-variant:normal;font-weight:bold;font-stretch:normal;font-size:10.24000072px;line-height:1.25;font-family:'TeX Gyre Adventor';-inkscape-font-specification:'TeX Gyre Adventor Bold';text-align:start;letter-spacing:0.54251951;text-anchor:start;fill:#ffffff;fill-opacity:1;stroke-width:1.06666672"
           id="path896" /></g></g></g></svg>